<?xml version="1.0" standalone="no"?>
<!DOCTYPE svg PUBLIC "-//W3C//DTD SVG 20010904//EN"
 "http://www.w3.org/TR/2001/REC-SVG-20010904/DTD/svg10.dtd">
<svg version="1.0" xmlns="http://www.w3.org/2000/svg"
 width="1280.000000pt" height="905.000000pt" viewBox="0 0 1280.000000 905.000000"
 preserveAspectRatio="xMidYMid meet">

<g transform="translate(0.000000,905.000000) scale(0.100000,-0.100000)"
fill="#000000" stroke="none">
<path d="M4357 6582 c-16 -3 -17 -27 -17 -268 l0 -264 -250 0 -250 0 0 -130 0
-130 2270 0 2270 0 0 130 0 130 -755 0 -755 0 -1 248 c-1 136 0 255 1 265 3
32 -24 16 -149 -91 l-121 -102 0 -160 0 -160 -120 0 -120 0 0 265 c0 146 -3
265 -6 265 -8 0 -234 -188 -251 -209 -9 -10 -13 -60 -13 -168 l0 -153 -115 0
-115 0 0 265 c0 146 -3 265 -7 265 -5 0 -24 -15 -44 -33 -20 -17 -77 -67 -127
-110 l-92 -77 0 -155 0 -155 -490 0 -490 0 0 135 0 135 208 0 207 0 150 126
c83 70 150 129 150 132 0 6 -939 9 -968 4z"/>
<path d="M7351 6566 c-22 -17 -229 -194 -271 -233 -12 -11 52 -13 390 -13
l405 0 120 101 c66 56 135 114 154 130 19 16 30 29 25 30 -5 0 -186 1 -403 2
-377 2 -396 1 -420 -17z"/>
<path d="M7199 5086 c-23 -54 -28 -87 -12 -93 11 -4 41 45 63 101 7 20 5 25
-12 29 -16 5 -23 -3 -39 -37z"/>
<path d="M5070 5095 c0 -22 4 -25 35 -25 l35 0 0 -145 0 -145 25 0 24 0 3 143
3 142 38 3 c32 3 37 7 37 28 0 24 -1 24 -100 24 l-100 0 0 -25z"/>
<path d="M5665 5110 c-36 -14 -93 -87 -101 -127 -10 -56 10 -122 50 -160 85
-79 206 -63 274 37 20 30 23 45 20 96 -4 72 -35 121 -91 148 -37 17 -118 21
-152 6z m120 -44 c66 -28 96 -123 59 -186 -48 -80 -165 -79 -214 3 -44 72 -6
169 75 190 34 8 45 7 80 -7z"/>
<path d="M6293 5110 c-39 -16 -56 -77 -32 -121 5 -11 35 -31 65 -45 67 -30 85
-61 60 -99 -24 -37 -71 -35 -94 5 -18 31 -28 35 -50 21 -12 -7 -11 -14 2 -40
18 -33 62 -61 98 -61 40 0 86 36 97 74 18 67 -2 101 -85 140 -44 21 -54 30
-54 51 0 36 43 52 77 30 25 -17 53 -14 53 5 0 5 -9 19 -20 30 -21 21 -77 26
-117 10z"/>
<path d="M6862 5103 c-66 -32 -111 -118 -97 -186 18 -84 108 -155 186 -144 98
13 163 81 163 172 0 63 -23 107 -76 145 -33 24 -51 30 -92 30 -28 0 -66 -8
-84 -17z m145 -48 c79 -52 74 -178 -8 -221 -64 -33 -142 -6 -173 60 -54 114
76 229 181 161z"/>
</g>
</svg>
